<svg xmlns="http://www.w3.org/2000/svg" xmlns:xlink="http://www.w3.org/1999/xlink" fill="none" version="1.1" width="900.0001220703125" height="720" viewBox="0 0 900.0001220703125 720"><defs><linearGradient x1="0.5" y1="0" x2="0.5" y2="1" id="master_svg0_2225_08462"><stop offset="0%" stop-color="#C2BDB5" stop-opacity="1"/><stop offset="100%" stop-color="#BFB8B1" stop-opacity="1"/></linearGradient><filter id="master_svg1_2225_08096" filterUnits="objectBoundingBox" color-interpolation-filters="sRGB" x="-0.004702433797939284" y="0" width="1.0094048675958787" height="1.0162037030169013"><feFlood flood-opacity="0" result="BackgroundImageFix"/><feColorMatrix in="SourceAlpha" type="matrix" values="0 0 0 0 0 0 0 0 0 0 0 0 0 0 0 0 0 0 127 0"/><feOffset dy="6" dx="0"/><feGaussianBlur stdDeviation="1"/><feColorMatrix type="matrix" values="0 0 0 0 0.130952388048172 0 0 0 0 0.130952388048172 0 0 0 0 0.130952388048172 0 0 0 0.30000001192092896 0"/><feBlend mode="normal" in2="BackgroundImageFix" result="effect1_dropShadow"/><feBlend mode="normal" in="SourceGraphic" in2="effect1_dropShadow" result="shape"/></filter><linearGradient x1="0.5" y1="-0.024335011839866638" x2="0.5" y2="1" id="master_svg2_2218_37431"><stop offset="0%" stop-color="#8F928B" stop-opacity="1"/><stop offset="0%" stop-color="#ACA49E" stop-opacity="1"/><stop offset="4.594125971198082%" stop-color="#CDCEBE" stop-opacity="1"/><stop offset="100%" stop-color="#6A6D5E" stop-opacity="1"/></linearGradient><linearGradient x1="0.9575331211090088" y1="0" x2="-0.2069888335834567" y2="0.6548470710171881" id="master_svg3_2225_08628"><stop offset="0%" stop-color="#AAA199" stop-opacity="1"/><stop offset="33.571428060531616%" stop-color="#AFACA9" stop-opacity="1"/><stop offset="68.57143044471741%" stop-color="#B0A8A4" stop-opacity="0.6700000166893005"/><stop offset="100%" stop-color="#706861" stop-opacity="1"/></linearGradient></defs><rect x="0" y="0" width="900" height="720" rx="17" fill="#C7BEB6" fill-opacity="1"/><rect x="1" y="1" width="898" height="718" rx="16" stroke="url(#master_svg0_2225_08462)" fill-opacity="0" fill="none" stroke-width="2"/><g filter="url(#master_svg1_2225_08096)"><path d="M24.688278198242188,599.6739720678711C24.688278198242188,612.4986820678711,34.365937198242186,623.2481920678711,47.13063419824219,624.4875120678711Q258.1450381982422,644.9748120678711,460.0750281982422,644.9748120678711Q661.0880581982422,644.9748120678711,853.0987981982422,624.6732420678711C865.7570681982422,623.3348620678711,875.3116281982421,612.6294220678711,875.3116281982421,599.9005920678711L875.3116281982421,69.0941350678711C875.3116281982421,56.11891506787109,865.3568581982422,45.290983067871096,852.4245481982422,44.236622067871096Q651.2123281982422,27.831932067871094,449.9999581982422,27.831932067871094Q248.78765819824218,27.831932067871094,47.57536719824219,44.236622067871096C34.64305589824219,45.290983067871096,24.688278198242188,56.11891506787109,24.688278198242188,69.0941280678711L24.688278198242188,599.6739720678711Z" fill="url(#master_svg2_2218_37431)" fill-opacity="1"/><path d="M20.688278198242188,599.6739720678711Q20.688278198242188,610.8401120678711,28.154224198242186,619.1063420678711Q35.63617719824219,627.3902820678711,46.74409319824218,628.4687720678711Q257.95148819824215,648.9748120678711,460.0750281982422,648.9748120678711Q661.2991181982422,648.9748120678711,853.5193981982422,628.6510820678711Q864.5362981982422,627.4862320678711,871.9320481982422,619.226582067871Q879.3116281982421,610.9850120678711,879.3116281982421,599.9005920678711L879.3116281982421,69.0941350678711Q879.3116281982421,57.799454067871096,871.6609381982422,49.48632806787109Q864.0049881982421,41.16749906787109,852.7495581982422,40.2498540678711Q651.3751081982422,23.831931067871093,449.9999281982422,23.831932067871094Q248.62485819824218,23.831932067871094,47.25032419824218,40.249850067871094Q35.99489819824219,41.167497067871096,28.33894629824219,49.48632806787109Q20.68827919824219,57.79941906787109,20.68828009824219,69.0941310678711L20.688278198242188,599.6739720678711ZM47.13063419824219,624.4875120678711C34.365937198242186,623.2481920678711,24.688278198242188,612.4986820678711,24.688278198242188,599.6739720678711L24.688278198242188,69.0941280678711C24.688278198242188,56.11891506787109,34.64305589824219,45.290983067871096,47.57536719824219,44.236622067871096Q248.78765819824218,27.831932067871094,449.9999581982422,27.831932067871094Q651.2123281982422,27.831932067871094,852.4245481982422,44.236622067871096C865.3568581982422,45.290983067871096,875.3116281982421,56.11891506787109,875.3116281982421,69.0941350678711L875.3116281982421,599.9005920678711C875.3116281982421,612.6294220678711,865.7570681982422,623.3348620678711,853.0987981982422,624.6732420678711Q661.0880581982422,644.9748120678711,460.0750281982422,644.9748120678711Q258.1450381982422,644.9748120678711,47.13063419824219,624.4875120678711Z" fill-rule="evenodd" fill="url(#master_svg3_2225_08628)" fill-opacity="1"/></g><line x1="2.2443203926086426" y1="677.857177734375" x2="897.7555508613586" y2="677.857177734375" fill-opacity="0" stroke-opacity="1" stroke="#D6CACA" fill="none" stroke-width="2"/><line x1="2.2443203926086426" y1="666.9663696289062" x2="897.7555508613586" y2="666.9663696289062" fill-opacity="0" stroke-opacity="1" stroke="#D6CACA" fill="none" stroke-width="2"/><line x1="2.244457483291626" y1="675.43701171875" x2="897.7556269168854" y2="675.43701171875" fill-opacity="0" stroke-opacity="1" stroke="#B3A99F" fill="none" stroke-width="2"/><line x1="2.244457483291626" y1="664.5462036132812" x2="897.7556269168854" y2="664.5462036132812" fill-opacity="0" stroke-opacity="1" stroke="#B3A99F" fill="none" stroke-width="2"/></svg>