<svg xmlns="http://www.w3.org/2000/svg" xmlns:xlink="http://www.w3.org/1999/xlink" fill="none" version="1.1" width="900" height="720" viewBox="0 0 900 720"><defs><filter id="master_svg0_2225_08120" filterUnits="objectBoundingBox" color-interpolation-filters="sRGB" x="0" y="0" width="1" height="1"><feFlood flood-opacity="0" result="BackgroundImageFix"/><feBlend mode="normal" in="SourceGraphic" in2="BackgroundImageFix" result="shape"/><feColorMatrix in="SourceAlpha" type="matrix" result="hardAlpha" values="0 0 0 0 0 0 0 0 0 0 0 0 0 0 0 0 0 0 127 0"/><feOffset dy="1" dx="0"/><feGaussianBlur stdDeviation="0.5"/><feComposite in2="hardAlpha" operator="arithmetic" k2="-1" k3="1"/><feColorMatrix type="matrix" values="0 0 0 0 0 0 0 0 0 0 0 0 0 0 0 0 0 0 0.30000001192092896 0"/><feBlend mode="normal" in2="shape" result="effect1_innerShadow"/></filter></defs><g filter="url(#master_svg0_2225_08120)"><path d="M417.262760165625,698.3237587890625Q416.722760165625,699.4877587890625,415.756759665625,700.1117587890625Q414.790760065625,700.7357587890625,413.518759765625,700.7357587890625Q412.210759865625,700.7357587890625,411.178759765625,700.0877587890625Q410.146759765625,699.4397587890625,409.564759765625,698.2817587890625Q408.982759775625,697.1237582890625,408.982759775625,695.6597585890624Q408.982759775625,694.2197584890625,409.570759765625,693.0857586890625Q410.158759865625,691.9517583890625,411.214759865625,691.3157586890625Q412.270759865625,690.6797589890625,413.638759565625,690.6797589890625Q416.098759665625,690.6797589890625,417.238759965625,693.0917586890625L415.258759965625,693.9557585890625Q415.018759765625,693.3677587890625,414.568759965625,693.0677585890625Q414.118759665625,692.7677588890625,413.506759665625,692.7677588890625Q412.858759865625,692.7677588890625,412.348759865625,693.1397585890625Q411.838759865625,693.5117587890625,411.556759865625,694.1657585890625Q411.274759765625,694.8197588890625,411.274759765625,695.6597585890624Q411.274759765625,696.5237588890625,411.556759865625,697.2017592890625Q411.838759865625,697.8797587890625,412.348759865625,698.2637587890625Q412.858759865625,698.6477587890626,413.506759665625,698.6477587890626Q414.646759965625,698.6477587890626,415.282759665625,697.4597587890624L417.262760165625,698.3237587890625ZM421.558759765625,700.7357587890625Q420.478759765625,700.7357587890625,419.680759765625,700.2737587890625Q418.882759765625,699.8117587890625,418.456760365625,698.9537587890625Q418.030759765625,698.0957587890625,418.030759765625,696.9317588890625Q418.030759765625,695.7797584890625,418.456760365625,694.9217586890625Q418.882759765625,694.0637588890625,419.680759765625,693.6017589890625Q420.478759765625,693.1397585890625,421.558759765625,693.1397585890625Q422.638759765625,693.1397585890625,423.436759765625,693.6017589890625Q424.234760765625,694.0637588890625,424.660758765625,694.9217586890625Q425.086759765625,695.7797584890625,425.086759765625,696.9317588890625Q425.086759765625,698.0957587890625,424.660758765625,698.9537587890625Q424.234760765625,699.8117587890625,423.436759765625,700.2737587890625Q422.638759765625,700.7357587890625,421.558759765625,700.7357587890625ZM421.558759765625,698.6957587890626Q422.170759765625,698.6957587890626,422.524759765625,698.2217587890625Q422.878759765625,697.7477587890625,422.878759765625,696.9317588890625Q422.878759765625,696.1157588890625,422.524759765625,695.6477584890625Q422.170759765625,695.1797585890625,421.558759765625,695.1797585890625Q420.946759765625,695.1797585890625,420.592759765625,695.6477584890625Q420.238759765625,696.1157588890625,420.238759765625,696.9317588890625Q420.238759765625,697.7477587890625,420.592759765625,698.2217587890625Q420.946759765625,698.6957587890626,421.558759765625,698.6957587890626ZM426.262759765625,700.5677587890625L426.142760765625,693.3077587890625L428.422759765625,693.3077587890625L428.422759765625,694.6157588890625L428.494760765625,694.6157588890625Q429.226760765625,693.1397585890625,431.158759765625,693.1397585890625L431.230760765625,693.1397585890625L431.230760765625,695.2277588890624L431.110759765625,695.2277588890624Q429.658759765625,695.2277588890624,429.040759765625,695.6777591890625Q428.422759765625,696.1277589890625,428.422759765625,697.0997590890624L428.422759765625,700.5677587890625L426.262759765625,700.5677587890625ZM432.118760765625,700.5677587890625L432.118760765625,693.3077587890625L434.278760765625,693.3077587890625L434.278760765625,694.2437586890625L434.338760765625,694.2437586890625Q434.650760765625,693.7157587890625,435.154760765625,693.4277586890626Q435.658759765625,693.1397585890625,436.330760765625,693.1397585890625Q437.410760765625,693.1397585890625,437.998759765625,693.8357586890625Q438.586759765625,694.5317587890625,438.586759765625,695.8157586890625L438.586759765625,700.5677587890625L436.426759765625,700.5677587890625L436.426759765625,696.3197593890625Q436.426759765625,695.7917584890625,436.168760765625,695.4917583890625Q435.910760765625,695.1917585890625,435.454759765625,695.1917585890625Q434.914760765625,695.1917585890625,434.596759765625,695.5277585890625Q434.278760765625,695.8637580890625,434.278760765625,696.4517592890625L434.278760765625,700.5677587890625L432.118760765625,700.5677587890625ZM446.506759765625,696.4277591890625Q446.506759765625,697.1837586890625,446.338760765625,697.7837587890625L441.850761765625,697.7837587890625Q442.078757765625,698.9837587890624,443.242759765625,698.9837587890624Q443.67475876562503,698.9837587890624,444.010760765625,698.7257587890625Q444.346759765625,698.4677587890625,444.538760765625,698.0357587890625L446.314758765625,698.7677587890626Q445.954761765625,699.7037587890625,445.150760765625,700.2197587890626Q444.346759765625,700.7357587890625,443.230758765625,700.7357587890625Q442.126758765625,700.7357587890625,441.298759765625,700.2797587890625Q440.470760765625,699.8237587890625,440.02075976562503,698.9837587890624Q439.570760765625,698.1437587890625,439.570760765625,697.0157584890625Q439.570760765625,695.8397588890625,440.00876076562497,694.9637589890625Q440.446759765625,694.0877585890624,441.256759765625,693.6137585890625Q442.066760765625,693.1397585890625,443.146758765625,693.1397585890625Q444.154758765625,693.1397585890625,444.916759765625,693.5417584890625Q445.678760765625,693.9437589890625,446.092757765625,694.6877588890625Q446.506759765625,695.4317588890625,446.506759765625,696.4277591890625ZM444.310760765625,696.0317592890625Q444.310760765625,695.5157584890625,443.998759765625,695.2037586890625Q443.68675976562497,694.8917588890625,443.146758765625,694.8917588890625Q442.162761765625,694.8917588890625,441.886760765625,696.0317592890625L444.310760765625,696.0317592890625ZM447.682758765625,700.5677587890625L447.562759765625,693.3077587890625L449.842757765625,693.3077587890625L449.842757765625,694.6157588890625L449.914756765625,694.6157588890625Q450.646758765625,693.1397585890625,452.578757765625,693.1397585890625L452.650756765625,693.1397585890625L452.650756765625,695.2277588890624L452.530757765625,695.2277588890624Q451.078757765625,695.2277588890624,450.460757765625,695.6777591890625Q449.842757765625,696.1277589890625,449.842757765625,697.0997590890624L449.842757765625,700.5677587890625L447.682758765625,700.5677587890625ZM456.922759765625,700.7357587890625Q455.566760765625,700.7357587890625,454.564761765625,700.0637587890625Q453.562759765625,699.3917587890625,453.082759765625,698.2877587890625L455.014758765625,697.3877577890624Q455.254760765625,698.0357587890625,455.764758765625,698.3717587890625Q456.274760765625,698.7077587890625,456.934760765625,698.7077587890625Q457.618758765625,698.7077587890625,458.02075976562503,698.4617587890625Q458.422759765625,698.2157587890625,458.422759765625,697.8197587890625Q458.422759765625,697.5437587890625,458.278758765625,697.3637587890624Q458.134761765625,697.1837586890625,457.762759765625,697.0217589890625Q457.390762765625,696.8597583890624,456.658759765625,696.6557588890626Q455.68675976562497,696.3797587890625,455.044761765625,696.1037587890625Q454.402759765625,695.8277587890625,453.910758765625,695.2337588890625Q453.418758765625,694.6397585890625,453.418758765625,693.6677589890625Q453.418758765625,692.8037585890625,453.904758765625,692.1257590890625Q454.390758765625,691.4477586890625,455.224761765625,691.0637588890625Q456.058761765625,690.6797589890625,457.066760765625,690.6797589890625Q459.634761765625,690.6797589890625,460.750758765625,693.0437588890625L458.830760765625,693.9437589890625Q458.518760765625,693.2837586890626,458.086761765625,692.9957584890625Q457.654762765625,692.7077588890625,457.042758765625,692.7077588890625Q456.466758765625,692.7077588890625,456.082759765625,692.9537586890625Q455.698760765625,693.1997584890624,455.698760765625,693.5597586890625Q455.698760765625,693.8477587890625,455.848758765625,694.0337586890626Q455.998759765625,694.2197584890625,456.364761765625,694.3757586890625Q456.730758765625,694.5317587890625,457.474761765625,694.7357587890625Q458.422759765625,694.9877585890625,459.070758765625,695.2637586890625Q459.718761765625,695.5397586890625,460.210761765625,696.1277589890625Q460.702758765625,696.7157592890625,460.702758765625,697.6997587890625Q460.702758765625,698.6117587890625,460.22275876562503,699.3017587890625Q459.742759765625,699.9917587890625,458.884761765625,700.3637587890624Q458.026759765625,700.7357587890625,456.922759765625,700.7357587890625ZM466.462760765625,695.3477592890625L464.614757765625,695.3477592890625L464.614757765625,697.8677587890625Q464.614757765625,698.2277587890625,464.830756765625,698.4257587890625Q465.046760765625,698.6237587890625,465.442760765625,698.6237587890625Q465.874759765625,698.6237587890625,466.31875976562503,698.4917587890625L466.31875976562503,700.5317587890625Q465.622756765625,700.7357587890625,464.914760765625,700.7357587890625Q463.726760765625,700.7357587890625,463.090759765625,700.0817587890625Q462.454757765625,699.4277587890625,462.454757765625,698.2037577890625L462.454757765625,695.3477592890625L461.338760765625,695.3477592890625L461.338760765625,693.3077587890625L462.454757765625,693.3077587890625L462.454757765625,691.3037585890625L464.614757765625,691.3037585890625L464.614757765625,693.3077587890625L466.462760765625,693.3077587890625L466.462760765625,695.3477592890625ZM473.794761765625,693.3077587890625L473.794761765625,700.5677587890625L471.634761765625,700.5677587890625L471.634761765625,699.6557587890625L471.562759765625,699.6557587890625Q470.938758765625,700.7357587890625,469.618758765625,700.7357587890625Q468.550761765625,700.7357587890625,467.93876276562503,700.0457587890625Q467.326759765625,699.3557587890625,467.326759765625,698.1077587890625L467.326759765625,693.3077587890625L469.486758765625,693.3077587890625L469.486758765625,697.6037587890625Q469.486758765625,698.1197587890625,469.750758765625,698.4197587890625Q470.014762765625,698.7197587890626,470.470760765625,698.7197587890626Q470.998759765625,698.7197587890626,471.316760765625,698.3897587890625Q471.634761765625,698.0597587890625,471.634761765625,697.4837587890624L471.634761765625,693.3077587890625L473.794761765625,693.3077587890625ZM481.810760765625,700.5677587890625L479.65075676562503,700.5677587890625L479.65075676562503,699.7277587890625L479.578757765625,699.7277587890625Q479.290755765625,700.2077587890625,478.846755765625,700.4717587890625Q478.402755765625,700.7357587890625,477.862762765625,700.7357587890625Q476.950759765625,700.7357587890625,476.266761765625,700.2677587890626Q475.582755765625,699.7997587890625,475.216758765625,698.9237587890625Q474.850761765625,698.0477587890625,474.850761765625,696.8717584890625Q474.850761765625,695.7317580890625,475.204757765625,694.8917588890625Q475.558761765625,694.0517587890625,476.21276076562503,693.5957588890625Q476.86675976562503,693.1397585890625,477.742759765625,693.1397585890625Q478.342757765625,693.1397585890625,478.810760765625,693.4037584890625Q479.278762765625,693.6677589890625,479.578757765625,694.1477589890625L479.65075676562503,694.1477589890625L479.65075676562503,690.8477582890625L481.810760765625,690.8477582890625L481.810760765625,700.5677587890625ZM479.698760765625,696.9437589890625Q479.698760765625,696.1157588890625,479.338760765625,695.6357593890625Q478.978759765625,695.1557588890626,478.354758765625,695.1557588890626Q477.754760765625,695.1557588890626,477.406760765625,695.6357593890625Q477.058761765625,696.1157588890625,477.058761765625,696.9437589890625Q477.058761765625,697.7597587890625,477.418761765625,698.2397587890625Q477.77875476562497,698.7197587890626,478.402755765625,698.7197587890626Q479.002761765625,698.7197587890626,479.350761765625,698.2397587890625Q479.698760765625,697.7597587890625,479.698760765625,696.9437589890625ZM485.626754765625,691.3397588890625Q485.626754765625,691.9157590890625,485.284759765625,692.2577590890625Q484.942756765625,692.5997585890625,484.354758765625,692.5997585890625Q483.77875476562497,692.5997585890625,483.442756765625,692.2577590890625Q483.106757765625,691.9157590890625,483.106757765625,691.3397588890625Q483.106757765625,690.7637586890625,483.442756765625,690.4217586890625Q483.77875476562497,690.0797586890625,484.354758765625,690.0797586890625Q484.942756765625,690.0797586890625,485.284759765625,690.4217586890625Q485.626754765625,690.7637586890625,485.626754765625,691.3397588890625ZM485.446754765625,693.3077587890625L485.446754765625,700.5677587890625L483.286758765625,700.5677587890625L483.286758765625,693.3077587890625L485.446754765625,693.3077587890625ZM490.162757765625,700.7357587890625Q489.082755765625,700.7357587890625,488.284751765625,700.2737587890625Q487.486755765625,699.8117587890625,487.060752765625,698.9537587890625Q486.634757765625,698.0957587890625,486.634757765625,696.9317588890625Q486.634757765625,695.7797584890625,487.060752765625,694.9217586890625Q487.486755765625,694.0637588890625,488.284751765625,693.6017589890625Q489.082755765625,693.1397585890625,490.162757765625,693.1397585890625Q491.24275176562503,693.1397585890625,492.040755765625,693.6017589890625Q492.83875276562503,694.0637588890625,493.264754765625,694.9217586890625Q493.690757765625,695.7797584890625,493.690757765625,696.9317588890625Q493.690757765625,698.0957587890625,493.264754765625,698.9537587890625Q492.83875276562503,699.8117587890625,492.040755765625,700.2737587890625Q491.24275176562503,700.7357587890625,490.162757765625,700.7357587890625ZM490.162757765625,698.6957587890626Q490.774757765625,698.6957587890626,491.128753765625,698.2217587890625Q491.482757765625,697.7477587890625,491.482757765625,696.9317588890625Q491.482757765625,696.1157588890625,491.128753765625,695.6477584890625Q490.774757765625,695.1797585890625,490.162757765625,695.1797585890625Q489.550758765625,695.1797585890625,489.196754765625,695.6477584890625Q488.842757765625,696.1157588890625,488.842757765625,696.9317588890625Q488.842757765625,697.7477587890625,489.196754765625,698.2217587890625Q489.550758765625,698.6957587890626,490.162757765625,698.6957587890626Z" fill="#BEAEA0" fill-opacity="1"/></g></svg>